<mxfile host="app.diagrams.net" modified="2024-04-28T21:38:54.351Z" agent="Mozilla/5.0 (Macintosh; Intel Mac OS X 10_15_7) AppleWebKit/537.36 (KHTML, like Gecko) Chrome/124.0.0.0 Safari/537.36" etag="ZRzsob7tm9Cv449CNjuU" version="24.3.1" type="device">
  <diagram name="Page-1" id="03018318-947c-dd8e-b7a3-06fadd420f32">
    <mxGraphModel dx="1122" dy="676" grid="1" gridSize="10" guides="1" tooltips="1" connect="1" arrows="1" fold="1" page="1" pageScale="1" pageWidth="1100" pageHeight="850" background="#ffffff" math="0" shadow="0">
      <root>
        <mxCell id="0" />
        <mxCell id="1" parent="0" />
        <mxCell id="677b7b8949515195-1" value="" style="whiteSpace=wrap;html=1;rounded=0;shadow=0;labelBackgroundColor=none;strokeColor=#000000;strokeWidth=1;fillColor=none;fontFamily=Verdana;fontSize=12;fontColor=#000000;align=center;comic=1;movable=0;resizable=0;rotatable=0;deletable=0;editable=0;locked=1;connectable=0;" parent="1" vertex="1">
          <mxGeometry x="20" y="20" width="1060" height="810" as="geometry" />
        </mxCell>
        <mxCell id="677b7b8949515195-10" value="" style="whiteSpace=wrap;html=1;rounded=0;shadow=0;labelBackgroundColor=none;strokeWidth=1;fillColor=none;fontFamily=Verdana;fontSize=12;align=center;comic=1;" parent="1" vertex="1">
          <mxGeometry x="28" y="40" width="1040" height="50" as="geometry" />
        </mxCell>
        <mxCell id="677b7b8949515195-14" value="Project Name" style="text;html=1;points=[];align=left;verticalAlign=top;spacingTop=-4;fontSize=14;fontFamily=Verdana" parent="1" vertex="1">
          <mxGeometry x="48" y="55" width="60" height="20" as="geometry" />
        </mxCell>
        <mxCell id="677b7b8949515195-16" value="" style="verticalLabelPosition=bottom;shadow=0;dashed=0;align=center;html=1;verticalAlign=top;strokeWidth=1;shape=mxgraph.mockup.graphics.simpleIcon;strokeColor=#999999;rounded=0;labelBackgroundColor=none;fontFamily=Verdana;fontSize=14;fontColor=#000000;comic=1;" parent="1" vertex="1">
          <mxGeometry x="148" y="150" width="402" height="480" as="geometry" />
        </mxCell>
        <mxCell id="677b7b8949515195-25" value="" style="whiteSpace=wrap;html=1;rounded=0;shadow=0;labelBackgroundColor=none;strokeWidth=1;fillColor=none;fontFamily=Verdana;fontSize=12;align=center;comic=1;" parent="1" vertex="1">
          <mxGeometry x="840" y="140" width="230" height="340" as="geometry" />
        </mxCell>
        <mxCell id="677b7b8949515195-26" value="" style="whiteSpace=wrap;html=1;rounded=0;shadow=0;labelBackgroundColor=none;strokeWidth=1;fillColor=none;fontFamily=Verdana;fontSize=12;align=center;comic=1;" parent="1" vertex="1">
          <mxGeometry x="840" y="493" width="230" height="180" as="geometry" />
        </mxCell>
        <mxCell id="677b7b8949515195-42" value="Layer Properties..." style="text;html=1;points=[];align=left;verticalAlign=top;spacingTop=-4;fontSize=14;fontFamily=Verdana" parent="1" vertex="1">
          <mxGeometry x="860" y="510" width="170" height="20" as="geometry" />
        </mxCell>
        <mxCell id="677b7b8949515195-44" value="Layer 1" style="text;html=1;points=[];align=left;verticalAlign=top;spacingTop=-4;fontSize=14;fontFamily=Verdana" parent="1" vertex="1">
          <mxGeometry x="860" y="170" width="170" height="20" as="geometry" />
        </mxCell>
        <mxCell id="677b7b8949515195-45" value="Layer 2" style="text;html=1;points=[];align=left;verticalAlign=top;spacingTop=-4;fontSize=14;fontFamily=Verdana" parent="1" vertex="1">
          <mxGeometry x="860" y="205" width="170" height="20" as="geometry" />
        </mxCell>
        <mxCell id="677b7b8949515195-46" value="Layer 3" style="text;html=1;points=[];align=left;verticalAlign=top;spacingTop=-4;fontSize=14;fontFamily=Verdana" parent="1" vertex="1">
          <mxGeometry x="860" y="240" width="170" height="20" as="geometry" />
        </mxCell>
        <mxCell id="677b7b8949515195-47" value="Layer 4" style="text;html=1;points=[];align=left;verticalAlign=top;spacingTop=-4;fontSize=14;fontFamily=Verdana" parent="1" vertex="1">
          <mxGeometry x="860" y="275" width="170" height="20" as="geometry" />
        </mxCell>
        <mxCell id="677b7b8949515195-48" value="Layer 5" style="text;html=1;points=[];align=left;verticalAlign=top;spacingTop=-4;fontSize=14;fontFamily=Verdana" parent="1" vertex="1">
          <mxGeometry x="860" y="310" width="170" height="20" as="geometry" />
        </mxCell>
        <mxCell id="677b7b8949515195-49" value="Layer 6" style="text;html=1;points=[];align=left;verticalAlign=top;spacingTop=-4;fontSize=14;fontFamily=Verdana" parent="1" vertex="1">
          <mxGeometry x="860" y="345" width="170" height="20" as="geometry" />
        </mxCell>
        <mxCell id="2UuMbvhYk-UAec6wch0Q-1" value="Card Name" style="text;html=1;align=left;verticalAlign=middle;whiteSpace=wrap;rounded=0;fontSize=15;" vertex="1" parent="1">
          <mxGeometry x="40" y="110" width="120" height="30" as="geometry" />
        </mxCell>
      </root>
    </mxGraphModel>
  </diagram>
</mxfile>
